Coordinates
nRows=9
nColumns=38

# SIMM Motion File Header:
name Coordinates
datacolumns 38
datarows 9
otherdata 1
range 2.05400000000000030000 2.06199999999999980000

Units are S.I. units (second, meters, Newtons, ...)
Angles are in degrees.

endheader
time	pelvis_tilt	pelvis_list	pelvis_rotation	pelvis_tx	pelvis_ty	pelvis_tz	hip_flexion_r	hip_adduction_r	hip_rotation_r	knee_angle_r	ankle_angle_r	subtalar_angle_r	mtp_angle_r	hip_flexion_l	hip_adduction_l	hip_rotation_l	knee_angle_l	ankle_angle_l	subtalar_angle_l	mtp_angle_l	lumbar_extension	lumbar_bending	lumbar_rotation	arm_flex_r	arm_add_r	arm_rot_r	elbow_flex_r	pro_sup_r	wrist_flex_r	wrist_dev_r	arm_flex_l	arm_add_l	arm_rot_l	elbow_flex_l	pro_sup_l	wrist_flex_l	wrist_dev_l
      2.05400000000000030000	    -14.43067432899680500000	      3.11554831923810260000	      2.74589178352010730000	      0.96974213054875003000	      0.95998170521164927000	     -0.33608006709494870000	     48.42718999849798700000	     -5.56680778854547760000	      3.61615630146850850000	   -102.55060147922164000000	      6.07960464666018830000	      0.00000000000007758663	     -0.00000000000023008178	     13.72924474497383900000	     10.41078865854985800000	     -0.27443424243016545000	    -34.39862379753798600000	     17.83260611279660400000	     -0.00000000000002554975	      0.00000000000004655378	      0.47787265301608933000	     -4.58195393526237990000	     -7.95963260750579500000	    -33.81372682452499100000	    -22.76603814485877900000	     -9.96047414036661930000	     93.28397259482085200000	    117.64277536833271000000	     -0.00000000000000592744	      0.00000000000001870922	    -24.83347733476525200000	    -10.75487134988093300000	    -12.75830741575351000000	    116.07105605831185000000	    100.48261442799573000000	      0.00000000000004557659	      0.00000000000005996420
      2.05500000000000020000	    -14.41363075559265300000	      3.04117269697282880000	      2.64997270896276360000	      0.97006849736167289000	      0.96061637693446478000	     -0.33595063635364414000	     48.59437749315320300000	     -5.44155504579569540000	      3.61942888468259620000	   -102.18335841586311000000	      6.12398148473532710000	      0.00000000000007775133	     -0.00000000000023067875	     13.30429247850622000000	     10.29314868473696100000	     -0.24204796420544286000	    -34.08020776030997500000	     17.43310667780222200000	     -0.00000000000002578167	      0.00000000000004698076	      0.52180830785659660000	     -4.47233186099207550000	     -7.99198541886626220000	    -34.01201174898101000000	    -22.80413614698785100000	    -10.03153023325504000000	     93.47822100153314300000	    117.49410966883158000000	     -0.00000000000000595280	      0.00000000000001876143	    -24.84332218848262000000	    -10.71794349236376200000	    -12.77818777535332200000	    116.34490302838279000000	    100.43015732139928000000	      0.00000000000004570153	      0.00000000000006004824
      2.05600000000000000000	    -14.39628167264833200000	      2.96567661821309030000	      2.55372448655932920000	      0.97040099164699056000	      0.96125733396253987000	     -0.33582010678158442000	     48.75625282949214100000	     -5.31518040900854500000	      3.62004606060391290000	   -101.80947080261703000000	      6.16931501961825020000	      0.00000000000007790887	     -0.00000000000023127408	     12.87946071620435300000	     10.17415206942288500000	     -0.21207624803328662000	    -33.75988718344822800000	     17.02331355337419400000	     -0.00000000000002602400	      0.00000000000004740482	      0.56592200382189928000	     -4.36109571681091700000	     -8.02175184053539600000	    -34.21224308084901400000	    -22.84003654284134300000	    -10.10553485896180200000	     93.67214605612893800000	    117.34724352271164000000	     -0.00000000000000597836	      0.00000000000001881533	    -24.85250099511836200000	    -10.68226435556600200000	    -12.79507742645831500000	    116.61738236476475000000	    100.37950973004628000000	      0.00000000000004582629	      0.00000000000006012038
      2.05699999999999990000	    -14.37869908979604500000	      2.88909831748480530000	      2.45713448882653870000	      0.97073943467271240000	      0.96190421170334650000	     -0.33568845709289363000	     48.91291984989246100000	     -5.18774043619258500000	      3.61807030485908190000	   -101.42901564073668000000	      6.21557480699565710000	      0.00000000000007807280	     -0.00000000000023186875	     12.45493219305275200000	     10.05384145021950600000	     -0.18469913379125369000	    -33.43782933019313200000	     16.60340247278823300000	     -0.00000000000002629011	      0.00000000000004780083	      0.61026326010311993000	     -4.24829756198934480000	     -8.04894538396192690000	    -34.41437695608115600000	    -22.87375299172721200000	    -10.18241451523643800000	     93.86568471733913600000	    117.20183376646568000000	     -0.00000000000000600376	      0.00000000000001886816	    -24.86107442227697800000	    -10.64783693987040400000	    -12.80901972819969400000	    116.88847431541932000000	    100.33084896748333000000	      0.00000000000004595128	      0.00000000000006019468
      2.05799999999999980000	    -14.36095210759893900000	      2.81147553189909070000	      2.36019282797222290000	      0.97108364290155680000	      0.96255664767252669000	     -0.33555566822408761000	     49.06448186570006700000	     -5.05929175538559670000	      3.61356190741932660000	   -101.04206980724955000000	      6.26272312686803810000	      0.00000000000007824124	     -0.00000000000023246124	     12.03088431375257600000	      9.93226104032575210000	     -0.16008765676360287000	    -33.11420281328186400000	     16.17355812165718700000	     -0.00000000000002654673	      0.00000000000004821639	      0.65487748528163892000	     -4.13398901150018270000	     -8.07358674578677520000	    -34.61836468625740100000	    -22.90530456563534000000	    -10.26208863341161300000	     94.05877868216838100000	    117.05753452015951000000	     -0.00000000000000602849	      0.00000000000001892062	    -24.86910673664967700000	    -10.61466114924907500000	    -12.82006529590079700000	    117.15816805607868000000	    100.28434424880506000000	      0.00000000000004607554	      0.00000000000006028812
      2.05900000000000020000	    -14.34310611411266800000	      2.73284564572284430000	      2.26289258799269310000	      0.97143342841120806000	      0.96321428285678423000	     -0.33542172372782436000	     49.21104061679921700000	     -4.92989134242971790000	      3.60657869092054460000	   -100.64870996058679000000	      6.31071557669523830000	      0.00000000000007840703	     -0.00000000000023305244	     11.60748817084962400000	      9.80945681487031430000	     -0.13840291488157833000	    -32.78917711034201000000	     15.73397380499397600000	     -0.00000000000002678966	      0.00000000000004859639	      0.69980503222517854000	     -4.01822137612024120000	     -8.09570389122543510000	    -34.82415259701430400000	    -22.93471545047162500000	    -10.34446993761001600000	     94.25137411748215800000	    116.91399957058931000000	     -0.00000000000000605240	      0.00000000000001897272	    -24.87666495682552200000	    -10.58273400045423300000	    -12.82827167185252300000	    117.42646090558017000000	    100.24015574842976000000	      0.00000000000004619972	      0.00000000000006039281
      2.06000000000000010000	    -14.32523053380431800000	      2.65324606977979330000	      2.16523073906087720000	      0.97178859540507190000	      0.96387675001994055000	     -0.33528661111910907000	     49.35270533594923100000	     -4.79959741864308230000	      3.59717609195060950000	   -100.24901321435500000000	      6.35950034525145290000	      0.00000000000007857596	     -0.00000000000023364484	     11.18491798644611500000	      9.68547738167540300000	     -0.11979518899858924000	    -32.46292445861137600000	     15.28485113924065600000	     -0.00000000000002705319	      0.00000000000004898251	      0.74509015808455203000	     -3.90104648988224810000	     -8.11533243232888070000	    -35.03168356166220600000	    -22.96201461546273800000	    -10.42946490852844100000	     94.44342130799671500000	    116.77088490752396000000	     -0.00000000000000607632	      0.00000000000001902539	    -24.88381995836504900000	    -10.55204959138703200000	    -12.83370315353441900000	    117.69335759796117000000	    100.19843382101915000000	      0.00000000000004632418	      0.00000000000006047995
      2.06099999999999990000	    -14.30740947141785700000	      2.57271479962156140000	      2.06720928323526730000	      0.97214893543285696000	      0.96454365765174299000	     -0.33515032358838998000	     49.48960520517807300000	     -4.66847063366013340000	      3.58540731653560170000	    -99.84305803453611400000	      6.40901699820356810000	      0.00000000000007874188	     -0.00000000000023423711	     10.76336410565771100000	      9.56037511477387980000	     -0.10440297280898497000	    -32.13562263667732600000	     14.82639992700064500000	     -0.00000000000002732707	      0.00000000000004938029	      0.79079334413625191000	     -3.78251778727906580000	     -8.13251617753438440000	    -35.24089911224952900000	    -22.98723546584452700000	    -10.51697428537452200000	     94.63487425388103700000	    116.62785128394140000000	     -0.00000000000000610034	      0.00000000000001907791	    -24.89064824730408900000	    -10.52259898085018900000	    -12.83643066463219100000	    117.95886957908148000000	    100.15931829970808000000	      0.00000000000004644819	      0.00000000000006054972
      2.06199999999999980000	    -14.28967448738101500000	      2.49128859551803970000	      1.96883004005062110000	      0.97251425829255389000	      0.96521469269588822000	     -0.33501285314188445000	     49.62180992848191600000	     -4.53656925393291920000	      3.57132047594242290000	    -99.43091821131997700000	      6.45920742289661830000	      0.00000000000007890379	     -0.00000000000023482831	     10.34295109132021100000	      9.43420088046775080000	     -0.09235210813974748000	    -31.80743575390446100000	     14.35883733431489700000	     -0.00000000000002761845	      0.00000000000004977380	      0.83691350457842484000	     -3.66268505621834310000	     -8.14730460553293410000	    -35.45172621136962500000	    -23.01041574607964400000	    -10.60689262276070000000	     94.82569104371801000000	    116.48456512381134000000	     -0.00000000000000612521	      0.00000000000001913040	    -24.89721606709830200000	    -10.49437221751810500000	    -12.83653019232122000000	    118.22301389259779000000	    100.12293646547137000000	      0.00000000000004657212	      0.00000000000006059660
